# xmcd
#
# Track frame offsets:
#	183
#	11693
#	23968
#	36985
#	49988
#	68813
#	82753
#	95848
#	106250
#	118968
#	131570
#	146633
#
# Disc length: 2105 seconds
#
# Revision: 1
# Processed by: cddbd v1.5.1PL0 Copyright (c) Steve Scherf et al.
# Submitted via: EasyCDDAExtractor 7.1.3.1
#
DISCID=a808370c
DTITLE=Benny Berry - Mama's Rocking Chair
DYEAR=1992
DGENRE=Country
TTITLE0=I'll Jump Off That Bridge
TTITLE1=Mamas Rocking Chair
TTITLE2=The Worlds My Father Said To Me
TTITLE3=Hand Me Down
TTITLE4=Old Gideon Bible
TTITLE5=Something About You And A Dirt Road
TTITLE6=One Cup Of Coffee
TTITLE7=I'll Have To Let You Go
TTITLE8=A Woman Like Her
TTITLE9=A Strong Foundation
TTITLE10=I Never Go Around Mirrors
TTITLE11=With Me There Will Be No Goodbye S
EXTD=
EXTT0=
EXTT1=
EXTT2=
EXTT3=
EXTT4=
EXTT5=
EXTT6=
EXTT7=
EXTT8=
EXTT9=
EXTT10=
EXTT11=
PLAYORDER=
